HIERARCHY
ROOT Hips
{
	OFFSET 0.000000 0.000000 0.000000
	CHANNELS 6 Xposition Yposition Zposition Xrotation Yrotation Zrotation
	JOINT LeftUpLeg_virtual
	{
		OFFSET 0.000000 0.000000 0.000000
		CHANNELS 3 Xrotation Yrotation Zrotation
		JOINT LeftUpLeg
		{
			OFFSET 13.026900 -6.336304 -1.092800
			CHANNELS 3 Xrotation Yrotation Zrotation
			JOINT LeftLeg
			{
				OFFSET 0.524474 -46.096886 9.782700
				CHANNELS 3 Xrotation Yrotation Zrotation
				JOINT LeftFoot
				{
					OFFSET -0.524474 -53.427422 -12.948200
					CHANNELS 3 Xrotation Yrotation Zrotation
					JOINT LeftToeBase
					{
						OFFSET 0.192200 -14.009700 16.364100
						CHANNELS 3 Xrotation Yrotation Zrotation
						JOINT LeftToe_End
						{
							OFFSET -1.784700 -0.561700 9.474800
							CHANNELS 3 Xrotation Yrotation Zrotation
							End Site
							{
								OFFSET 0 0 0
							}
						}
					}
				}
			}
		}
	}
	JOINT RightUpLeg_virtual
	{
		OFFSET 0.000000 0.000000 0.000000
		CHANNELS 3 Xrotation Yrotation Zrotation
		JOINT RightUpLeg
		{
			OFFSET -12.883000 -6.336304 -1.092800
			CHANNELS 3 Xrotation Yrotation Zrotation
			JOINT RightLeg
			{
				OFFSET -0.524587 -46.096825 9.782800
				CHANNELS 3 Xrotation Yrotation Zrotation
				JOINT RightFoot
				{
					OFFSET 0.524587 -53.427383 -12.948300
					CHANNELS 3 Xrotation Yrotation Zrotation
					JOINT RightToeBase
					{
						OFFSET -0.192200 -14.009700 16.364100
						CHANNELS 3 Xrotation Yrotation Zrotation
						JOINT RightToe_End
						{
							OFFSET 1.784700 -0.561700 9.474800
							CHANNELS 3 Xrotation Yrotation Zrotation
							End Site
							{
								OFFSET 0 0 0
							}
						}
					}
				}
			}
		}
	}
	JOINT Spine_virtual
	{
		OFFSET 0.000000 0.000000 0.000000
		CHANNELS 3 Xrotation Yrotation Zrotation
		JOINT Spine
		{
			OFFSET 0.072000 7.257294 -0.789700
			CHANNELS 3 Xrotation Yrotation Zrotation
			JOINT Spine1
			{
				OFFSET 0.000000 12.508769 -0.658067
				CHANNELS 3 Xrotation Yrotation Zrotation
				JOINT Spine1_split
				{
					OFFSET 0.000000 12.508769 -0.658067
					CHANNELS 3 Xrotation Yrotation Zrotation
					JOINT Spine2
					{
						OFFSET 0.000000 12.508769 -0.658067
						CHANNELS 3 Xrotation Yrotation Zrotation
						JOINT Neck_virtual
						{
							OFFSET 0.000000 0.000000 0.000000
							CHANNELS 3 Xrotation Yrotation Zrotation
							JOINT Neck
							{
								OFFSET 0.000000 14.033295 7.520400
								CHANNELS 3 Xrotation Yrotation Zrotation
								JOINT Head
								{
									OFFSET 0.000000 8.198502 5.703100
									CHANNELS 3 Xrotation Yrotation Zrotation
									JOINT HeadTop_End
									{
										OFFSET 0.000000 17.760803 13.332701
										CHANNELS 3 Xrotation Yrotation Zrotation
										End Site
										{
											OFFSET 0 0 0
										}
									}
								}
							}
						}
						JOINT LeftShoulder_virtual
						{
							OFFSET 0.000000 0.000000 0.000000
							CHANNELS 3 Xrotation Yrotation Zrotation
							JOINT LeftShoulder
							{
								OFFSET 6.292450 5.785301 -0.669000
								CHANNELS 3 Xrotation Yrotation Zrotation
								JOINT LeftShoulder_split
								{
									OFFSET 6.292450 5.785301 -0.669000
									CHANNELS 3 Xrotation Yrotation Zrotation
									JOINT LeftArm
									{
										OFFSET 13.907140 -6.093903 1.965100
										CHANNELS 3 Xrotation Yrotation Zrotation
										JOINT LeftForeArm
										{
											OFFSET 34.140198 0.000000 0.000000
											CHANNELS 3 Xrotation Yrotation Zrotation
											JOINT LeftHand
											{
												OFFSET 40.960209 0.000000 0.000000
												CHANNELS 3 Xrotation Yrotation Zrotation
												End Site
												{
													OFFSET 0 0 0
												}
											}
										}
									}
								}
							}
						}
						JOINT RightShoulder_virtual
						{
							OFFSET 0.000000 0.000000 0.000000
							CHANNELS 3 Xrotation Yrotation Zrotation
							JOINT RightShoulder
							{
								OFFSET -6.292450 5.785301 -0.669000
								CHANNELS 3 Xrotation Yrotation Zrotation
								JOINT RightShoulder_split
								{
									OFFSET -6.292450 5.785301 -0.669000
									CHANNELS 3 Xrotation Yrotation Zrotation
									JOINT RightArm
									{
										OFFSET -13.907140 -6.093903 1.965100
										CHANNELS 3 Xrotation Yrotation Zrotation
										JOINT RightForeArm
										{
											OFFSET -34.140198 0.000000 0.000000
											CHANNELS 3 Xrotation Yrotation Zrotation
											JOINT RightHand
											{
												OFFSET -40.960209 0.000000 0.000000
												CHANNELS 3 Xrotation Yrotation Zrotation
												End Site
												{
													OFFSET 0 0 0
												}
											}
										}
									}
								}
							}
						}
					}
				}
			}
		}
	}
}
MOTION
Frames: 6
Frame Time: 0.03333333
2.731004 82.944588 -58.772083 0.000000 0.000000 0.000000 16.304698 -76.591884 15.326627 -47.626940 -10.368859 26.708582 73.874602 13.848802 0.915325 -15.023559 4.965186 -31.266205 -2.515491 -3.237324 0.633300 0.000000 0.000000 0.000000 16.304698 -76.591884 15.326627 -54.843991 -2.462975 -14.623367 79.978530 19.092433 -5.539386 -28.970801 -1.131900 3.393144 -1.854634 -0.300659 0.346313 0.000000 0.000000 0.000000 16.304698 -76.591884 15.326627 4.471940 9.252676 -3.208224 9.594763 18.344807 -7.012217 0.000000 0.000000 0.000000 0.000000 0.000000 0.000000 9.594756 18.344797 -7.012213 2.735906 2.537200 0.917083 2.210332 -0.400985 -2.541340 0.000000 0.000000 0.000000 9.594756 18.344797 -7.012213 4.442676 -4.896772 0.391717 0.000000 0.000000 0.000000 -74.044838 -32.200879 -59.779544 45.630076 -71.166371 44.297455 0.000000 0.000000 0.000000 9.594756 18.344797 -7.012213 3.889429 8.333837 -7.261188 0.000000 0.000000 0.000000 -42.000240 -3.203195 27.938522 -12.789872 47.794939 2.424344 0.000000 0.000000 0.000000 
3.496531 81.182877 -59.742191 0.000000 0.000000 0.000000 29.616165 -73.803295 27.693968 -54.918959 -11.778141 27.777403 75.502188 11.599387 0.446865 -14.244773 4.316353 -30.266911 -2.405848 -3.232637 0.742431 0.000000 0.000000 0.000000 29.616165 -73.803295 27.693968 -60.717472 -1.385713 -14.130195 81.798899 17.347502 -4.618576 -29.197020 -1.370538 3.952343 -2.114524 -0.465152 0.283342 0.000000 0.000000 0.000000 29.616165 -73.803295 27.693968 4.689137 8.943240 -3.383497 10.016241 17.679752 -7.291495 0.000000 0.000000 0.000000 0.000000 0.000000 0.000000 10.016245 17.679741 -7.291498 1.141876 6.463884 1.637534 0.937888 -0.640673 -6.991575 0.000000 0.000000 0.000000 10.016245 17.679741 -7.291498 4.231860 -4.936951 -0.833285 0.000000 0.000000 0.000000 -58.521402 -25.699400 -53.642649 41.104488 -69.046505 41.375797 0.000000 0.000000 0.000000 10.016245 17.679741 -7.291498 3.219528 7.942039 -3.888785 0.000000 0.000000 0.000000 -35.652382 -7.358678 27.766298 -11.633913 45.311437 5.140172 0.000000 0.000000 0.000000 
4.293611 80.340050 -60.463535 0.000000 0.000000 0.000000 37.424259 -70.513575 35.330830 -61.040827 -12.278815 27.269341 75.775334 10.202641 0.137123 -13.061354 3.820149 -29.083113 -2.284086 -3.228442 0.849414 0.000000 0.000000 0.000000 37.424259 -70.513575 35.330830 -65.390216 0.236598 -14.039756 82.540883 15.294161 -4.122871 -29.075811 -1.787470 5.170243 -1.846797 -0.364261 0.333575 0.000000 0.000000 0.000000 37.424259 -70.513575 35.330830 4.932670 8.636615 -3.509537 10.467518 17.058181 -7.399228 0.000000 0.000000 0.000000 0.000000 0.000000 0.000000 10.467507 17.058193 -7.399234 -0.406296 10.233214 2.248009 -0.042259 -0.748685 -11.408909 0.000000 0.000000 0.000000 10.467507 17.058193 -7.399234 3.963817 -4.635897 -1.485582 0.000000 0.000000 0.000000 -43.366691 -17.194673 -50.718676 30.223720 -66.614166 31.337290 0.000000 0.000000 0.000000 10.467507 17.058193 -7.399234 2.670371 7.955731 -0.110396 0.000000 0.000000 0.000000 -26.274262 -14.550856 27.245754 -10.625639 45.470291 7.582558 0.000000 0.000000 0.000000 
4.890450 80.287338 -60.891819 0.000000 0.000000 0.000000 40.840348 -67.595746 39.171473 -65.143400 -11.838389 25.659832 75.001153 9.751549 0.286175 -11.881309 3.471638 -28.213939 -2.296593 -3.204830 0.819940 0.000000 0.000000 0.000000 40.840348 -67.595746 39.171473 -68.115960 2.134962 -14.224182 82.434830 13.122510 -3.924352 -28.910053 -2.157336 6.728676 -1.704034 -0.321646 0.347832 0.000000 0.000000 0.000000 40.840348 -67.595746 39.171473 5.165605 8.305385 -3.509485 10.870815 16.443030 -7.208350 0.000000 0.000000 0.000000 0.000000 0.000000 0.000000 10.870816 16.442999 -7.208338 -1.908103 13.399172 2.768695 -0.761368 -0.654851 -15.173383 0.000000 0.000000 0.000000 10.870816 16.442999 -7.208338 3.581017 -4.135687 -2.293948 0.000000 0.000000 0.000000 -30.959885 -8.583846 -52.621601 18.886501 -61.626399 19.603439 0.000000 0.000000 0.000000 10.870816 16.442999 -7.208338 2.171237 8.417433 3.878704 0.000000 0.000000 0.000000 -15.534627 -23.529085 30.299016 -10.437989 47.028612 9.884619 0.000000 0.000000 0.000000 
5.181015 80.811539 -60.993885 0.000000 0.000000 0.000000 41.318102 -65.332535 40.331789 -67.270239 -10.818013 23.678814 73.671698 9.765783 0.662093 -11.035338 3.169022 -27.466550 -2.338025 -3.211340 0.785937 0.000000 0.000000 0.000000 41.318102 -65.332535 40.331789 -68.783905 3.865470 -14.725290 81.682109 11.131950 -3.826898 -28.828244 -2.514640 8.300574 -1.782583 -0.344123 0.335868 0.000000 0.000000 0.000000 41.318102 -65.332535 40.331789 5.310418 7.940833 -3.390047 11.081068 15.781149 -6.767763 0.000000 0.000000 0.000000 0.000000 0.000000 0.000000 11.081087 15.781147 -6.767758 -3.119088 15.597208 3.161491 -1.346003 -0.314964 -17.789841 0.000000 0.000000 0.000000 11.081087 15.781147 -6.767758 3.049856 -3.405248 -3.544955 0.000000 0.000000 0.000000 -22.016865 -2.037448 -57.149542 11.625827 -54.757712 11.207351 0.000000 0.000000 0.000000 11.081087 15.781147 -6.767758 1.690193 8.983277 7.466845 0.000000 0.000000 0.000000 -6.361666 -30.272983 37.373654 -11.042696 46.209396 11.671516 0.000000 0.000000 0.000000 
5.219541 81.766052 -60.808651 0.000000 0.000000 0.000000 39.687907 -63.551188 39.469160 -67.868933 -9.431614 21.829662 72.014421 9.420409 0.799516 -10.550963 2.896906 -26.334568 -2.326949 -3.224099 0.797922 0.000000 0.000000 0.000000 39.687907 -63.551188 39.469160 -67.658788 5.139521 -15.720034 80.415608 9.484214 -3.709631 -28.957301 -2.917915 9.722885 -1.811164 -0.366138 0.330014 0.000000 0.000000 0.000000 39.687907 -63.551188 39.469160 5.361666 7.562092 -3.257300 11.107517 15.061305 -6.309671 0.000000 0.000000 0.000000 0.000000 0.000000 0.000000 11.107523 15.061317 -6.309678 -3.882985 16.730733 3.358914 -1.871925 0.300884 -19.147658 0.000000 0.000000 0.000000 11.107523 15.061317 -6.309678 2.450014 -2.519632 -5.037095 0.000000 0.000000 0.000000 -16.129162 2.154832 -61.838955 8.352843 -48.812162 6.678310 0.000000 0.000000 0.000000 11.107523 15.061317 -6.309678 1.308013 9.379994 10.066189 0.000000 0.000000 0.000000 -1.273719 -33.119922 44.699166 -11.414118 41.601422 11.685694 0.000000 0.000000 0.000000 
